<svg width="156" height="28" viewBox="0 0 156 28" fill="none" xmlns="http://www.w3.org/2000/svg">
<mask id="path-1-inside-1_1017_43500" fill="white">
<path d="M0 0H156V28H0V0Z"/>
</mask>
<path d="M0 28H1V0H0H-1V28H0Z" fill="url(#paint0_linear_1017_43500)" mask="url(#path-1-inside-1_1017_43500)"/>
<path d="M14.6562 21H12.3711L17.4492 6.85938H19.9297L25.0273 21H22.7422L21.4531 17.2695H15.9453L14.6562 21ZM16.5703 15.4727H20.8281L18.7383 9.4375H18.6406L16.5703 15.4727ZM26.6242 21V6.85938H28.6945V12.1133H28.8117C29.2023 11.4492 29.9055 10.2578 31.8586 10.2578C34.4172 10.2578 36.3313 12.2695 36.3313 15.7266C36.3313 19.1445 34.4563 21.2148 31.8781 21.2148C29.9445 21.2148 29.2023 20.043 28.8117 19.3398H28.6555V21H26.6242ZM28.6555 15.6875C28.6555 17.9141 29.6516 19.4375 31.4094 19.4375C33.2453 19.4375 34.2023 17.8164 34.2023 15.6875C34.2023 13.5977 33.2648 12.0352 31.4094 12.0352C29.632 12.0352 28.6555 13.4805 28.6555 15.6875ZM42.6938 21.2148C39.6859 21.2148 37.7328 19.0273 37.7328 15.7461C37.7328 12.4453 39.6859 10.2578 42.6938 10.2578C45.682 10.2578 47.6352 12.4453 47.6352 15.7461C47.6352 19.0273 45.682 21.2148 42.6938 21.2148ZM42.6938 19.4766C44.6078 19.4766 45.5258 17.7773 45.5258 15.7461C45.5258 13.7148 44.6078 11.9766 42.6938 11.9766C40.7406 11.9766 39.8227 13.7148 39.8227 15.7461C39.8227 17.7773 40.7406 19.4766 42.6938 19.4766ZM56.2242 16.5859V10.3945H58.2945V21H56.2633V19.1641H56.1461C55.6578 20.2969 54.5641 21.1367 52.982 21.1367C50.9313 21.1367 49.4859 19.7695 49.4859 17.1328V10.3945H51.5758V16.8789C51.5758 18.3242 52.4547 19.2422 53.7242 19.2422C54.8766 19.2422 56.2242 18.4023 56.2242 16.5859ZM65.5945 10.3945V12.0547H63.4266V17.875C63.4266 19.0664 64.032 19.2812 64.6961 19.3008C64.9891 19.3008 65.4578 19.2617 65.7508 19.2422V21.0586C65.4578 21.0977 65.0086 21.1367 64.4422 21.1367C62.8016 21.1367 61.3367 20.2383 61.3563 18.3047V12.0547H59.7938V10.3945H61.3563V7.85547H63.4266V10.3945H65.5945ZM72.1086 24.9844V10.3945H74.1398V12.1133H74.3156C74.6867 11.4492 75.4094 10.2578 77.3625 10.2578C79.9211 10.2578 81.8156 12.2695 81.8156 15.7266C81.8156 19.1445 79.9602 21.2148 77.382 21.2148C75.4484 21.2148 74.6867 20.043 74.3156 19.3398H74.1984V24.9844H72.1086ZM74.1594 15.6875C74.1594 17.9141 75.1359 19.4375 76.9133 19.4375C78.7492 19.4375 79.7062 17.8164 79.7062 15.6875C79.7062 13.5977 78.7687 12.0352 76.9133 12.0352C75.1164 12.0352 74.1594 13.4805 74.1594 15.6875ZM83.6859 21V10.3945H85.6977V12.0742H85.8148C86.2055 10.9414 87.2602 10.2383 88.5102 10.2383C88.7641 10.2383 89.1742 10.2578 89.3891 10.2773V12.2695C89.2133 12.2305 88.725 12.1523 88.2953 12.1523C86.85 12.1523 85.7758 13.1484 85.7758 14.5352V21H83.6859ZM94.8922 21.2148C91.8844 21.2148 89.9313 19.0273 89.9313 15.7461C89.9313 12.4453 91.8844 10.2578 94.8922 10.2578C97.8805 10.2578 99.8336 12.4453 99.8336 15.7461C99.8336 19.0273 97.8805 21.2148 94.8922 21.2148ZM94.8922 19.4766C96.8063 19.4766 97.7242 17.7773 97.7242 15.7461C97.7242 13.7148 96.8063 11.9766 94.8922 11.9766C92.9391 11.9766 92.0211 13.7148 92.0211 15.7461C92.0211 17.7773 92.9391 19.4766 94.8922 19.4766ZM101.684 10.3945H103.774V21.6836C103.774 23.832 102.583 24.9844 100.395 24.9844C100.259 24.9844 100.122 24.9844 99.9656 24.9648V23.1875H100.298C101.274 23.1875 101.684 22.6406 101.684 21.6641V10.3945ZM102.72 8.75391C101.997 8.75391 101.391 8.20703 101.391 7.52344C101.391 6.83984 101.997 6.29297 102.72 6.29297C103.423 6.29297 104.028 6.83984 104.028 7.52344C104.028 8.20703 103.423 8.75391 102.72 8.75391ZM110.684 21.2148C107.559 21.2148 105.645 19.0664 105.645 15.7656C105.645 12.5039 107.598 10.2578 110.547 10.2578C112.969 10.2578 115.254 11.7617 115.254 15.5898V16.332H107.715C107.773 18.3438 108.955 19.4961 110.703 19.4961C111.895 19.4961 112.656 18.9883 113.008 18.3438H115.117C114.648 20.0625 113.008 21.2148 110.684 21.2148ZM107.734 14.7695H113.203C113.203 13.1484 112.168 11.9766 110.566 11.9766C108.896 11.9766 107.812 13.2656 107.734 14.7695ZM121.616 21.2148C118.53 21.2148 116.655 18.9297 116.655 15.7461C116.655 12.5039 118.589 10.2578 121.577 10.2578C123.999 10.2578 125.757 11.6836 125.972 13.832H123.941C123.726 12.8359 122.925 11.9961 121.616 11.9961C119.898 11.9961 118.745 13.4219 118.745 15.6875C118.745 18.0117 119.878 19.4375 121.616 19.4375C122.788 19.4375 123.687 18.793 123.941 17.6406H125.972C125.738 19.6914 124.116 21.2148 121.616 21.2148ZM132.705 10.3945V12.0547H130.537V17.875C130.537 19.0664 131.143 19.2812 131.807 19.3008C132.1 19.3008 132.569 19.2617 132.862 19.2422V21.0586C132.569 21.0977 132.12 21.1367 131.553 21.1367C129.912 21.1367 128.448 20.2383 128.467 18.3047V12.0547H126.905V10.3945H128.467V7.85547H130.537V10.3945H132.705Z" fill="#FAFDFF"/>
<defs>
<linearGradient id="paint0_linear_1017_43500" x1="2.64121" y1="7.68193e-07" x2="32.9636" y2="76.282" gradientUnits="userSpaceOnUse">
<stop offset="0.01" stop-color="white"/>
<stop offset="0.409316" stop-color="white" stop-opacity="0"/>
<stop offset="0.6" stop-color="white" stop-opacity="0.5"/>
<stop offset="0.8" stop-color="white"/>
<stop offset="1" stop-color="white" stop-opacity="0.25"/>
</linearGradient>
</defs>
</svg>
