<svg width="156" height="28" viewBox="0 0 156 28" fill="none" xmlns="http://www.w3.org/2000/svg">
<mask id="path-1-inside-1_1017_43375" fill="white">
<path d="M0 0H156V28H0V0Z"/>
</mask>
<path d="M0 28H1V0H0H-1V28H0Z" fill="url(#paint0_linear_1017_43375)" mask="url(#path-1-inside-1_1017_43375)"/>
<path d="M13.4453 21V6.85938H18.6211C21.6289 6.85938 23.0938 8.48047 23.0938 10.5703C23.0938 12.3281 22.0195 13.2266 20.7109 13.5586V13.6953C22.1172 13.7734 23.6406 15.0039 23.6406 17.1914C23.6406 19.3594 22.1562 21 18.8555 21H13.4453ZM18.6602 19.1641C20.6914 19.1641 21.5117 18.2656 21.5117 17.0938C21.5117 15.7461 20.4375 14.6523 18.7383 14.6523H15.5938V19.1641H18.6602ZM18.4453 12.9727C19.8711 12.9727 20.9844 12.0938 20.9844 10.7461C20.9844 9.57422 20.1836 8.69531 18.4844 8.69531H15.5938V12.9727H18.4453ZM25.0813 18.0117C25.0813 15.5898 27.132 14.9648 29.0461 14.8281C29.7492 14.7793 31.341 14.6914 31.8391 14.6719L31.8195 13.832C31.8195 12.6406 31.0969 11.9375 29.6711 11.9375C28.4406 11.9375 27.6984 12.5039 27.4836 13.2852H25.4133C25.6086 11.5273 27.2492 10.2578 29.7492 10.2578C31.4289 10.2578 33.9094 10.8828 33.9094 13.9492V21H31.8781V19.5547H31.8C31.3898 20.3555 30.4133 21.2344 28.6555 21.2344C26.6438 21.2344 25.0813 20.082 25.0813 18.0117ZM27.1125 18.0312C27.1125 19.0469 27.9523 19.5742 29.1242 19.5742C30.8234 19.5742 31.8391 18.4414 31.8391 17.1719V16.1953L29.3391 16.3711C27.9719 16.4688 27.1125 16.9766 27.1125 18.0312ZM40.7211 21.2148C37.6352 21.2148 35.7602 18.9297 35.7602 15.7461C35.7602 12.5039 37.6938 10.2578 40.682 10.2578C43.1039 10.2578 44.8617 11.6836 45.0766 13.832H43.0453C42.8305 12.8359 42.0297 11.9961 40.7211 11.9961C39.0023 11.9961 37.85 13.4219 37.85 15.6875C37.85 18.0117 38.9828 19.4375 40.7211 19.4375C41.893 19.4375 42.7914 18.793 43.0453 17.6406H45.0766C44.8422 19.6914 43.2211 21.2148 40.7211 21.2148ZM46.8492 21V6.85938H48.9391V14.8672H49.1148L53.3141 10.3945H55.8141L51.5367 14.9453L56.107 21H53.5484L49.9547 16.2344L48.9391 17.2305V21H46.8492ZM66.8984 10.3945V12.0547H64.7305V17.875C64.7305 19.0664 65.3359 19.2812 66 19.3008C66.293 19.3008 66.7617 19.2617 67.0547 19.2422V21.0586C66.7617 21.0977 66.3125 21.1367 65.7461 21.1367C64.1055 21.1367 62.6406 20.2383 62.6602 18.3047V12.0547H61.0977V10.3945H62.6602V7.85547H64.7305V10.3945H66.8984ZM73.1047 21.2148C70.0969 21.2148 68.1437 19.0273 68.1437 15.7461C68.1437 12.4453 70.0969 10.2578 73.1047 10.2578C76.093 10.2578 78.0461 12.4453 78.0461 15.7461C78.0461 19.0273 76.093 21.2148 73.1047 21.2148ZM73.1047 19.4766C75.0187 19.4766 75.9367 17.7773 75.9367 15.7461C75.9367 13.7148 75.0187 11.9766 73.1047 11.9766C71.1516 11.9766 70.2336 13.7148 70.2336 15.7461C70.2336 17.7773 71.1516 19.4766 73.1047 19.4766ZM92.4508 10.5898C92.3141 9.28125 91.1617 8.51953 89.5406 8.51953C87.8023 8.51953 86.7086 9.39844 86.7086 10.6094C86.7086 11.957 88.1734 12.4648 89.2867 12.7383L90.6539 13.1094C92.4703 13.5391 94.7164 14.5352 94.7359 17.0938C94.7164 19.4766 92.8219 21.2344 89.482 21.2344C86.318 21.2344 84.3258 19.6523 84.1891 17.0742H86.3375C86.4742 18.6172 87.8219 19.3594 89.482 19.3594C91.2789 19.3594 92.5875 18.4414 92.607 17.0547C92.5875 15.8242 91.4352 15.3164 89.9313 14.9258L88.2516 14.4766C85.9859 13.8516 84.5602 12.6992 84.5602 10.7266C84.5602 8.28516 86.7477 6.66406 89.5992 6.66406C92.4703 6.66406 94.482 8.30469 94.5406 10.5898H92.4508ZM96.1375 8.71484V6.85938H107.095V8.71484H102.7V21H100.552V8.71484H96.1375ZM108.594 21H106.309L111.387 6.85938H113.867L118.965 21H116.68L115.391 17.2695H109.883L108.594 21ZM110.508 15.4727H114.766L112.676 9.4375H112.578L110.508 15.4727ZM120.562 21V6.85938H125.601C128.882 6.85938 130.503 8.69531 130.503 11.293C130.503 13.1973 129.644 14.6426 127.925 15.2773L131.05 21H128.609L125.738 15.668H125.601H122.71V21H120.562ZM122.71 13.8125H125.386C127.476 13.8125 128.335 12.8945 128.335 11.293C128.335 9.69141 127.476 8.69531 125.386 8.69531H122.71V13.8125ZM131.983 8.71484V6.85938H142.94V8.71484H138.545V21H136.397V8.71484H131.983Z" fill="#FAFDFF"/>
<defs>
<linearGradient id="paint0_linear_1017_43375" x1="2.64121" y1="7.68193e-07" x2="32.9636" y2="76.282" gradientUnits="userSpaceOnUse">
<stop offset="0.01" stop-color="white"/>
<stop offset="0.409316" stop-color="white" stop-opacity="0"/>
<stop offset="0.6" stop-color="white" stop-opacity="0.5"/>
<stop offset="0.8" stop-color="white"/>
<stop offset="1" stop-color="white" stop-opacity="0.25"/>
</linearGradient>
</defs>
</svg>
