<svg width="156" height="28" viewBox="0 0 156 28" fill="none" xmlns="http://www.w3.org/2000/svg">
<mask id="path-1-inside-1_1017_43391" fill="white">
<path d="M0 0H156V28H0V0Z"/>
</mask>
<path d="M0 28H1V0H0H-1V28H0Z" fill="url(#paint0_linear_1017_43391)" mask="url(#path-1-inside-1_1017_43391)"/>
<path d="M13.4453 21V6.85938H18.6211C21.6289 6.85938 23.0938 8.48047 23.0938 10.5703C23.0938 12.3281 22.0195 13.2266 20.7109 13.5586V13.6953C22.1172 13.7734 23.6406 15.0039 23.6406 17.1914C23.6406 19.3594 22.1562 21 18.8555 21H13.4453ZM18.6602 19.1641C20.6914 19.1641 21.5117 18.2656 21.5117 17.0938C21.5117 15.7461 20.4375 14.6523 18.7383 14.6523H15.5938V19.1641H18.6602ZM18.4453 12.9727C19.8711 12.9727 20.9844 12.0938 20.9844 10.7461C20.9844 9.57422 20.1836 8.69531 18.4844 8.69531H15.5938V12.9727H18.4453ZM35.2961 11.332C34.7688 9.65234 33.4992 8.63672 31.6242 8.63672C29.2414 8.63672 27.4055 10.5117 27.4055 13.9297C27.4055 17.3477 29.2219 19.2227 31.7219 19.2227C33.9777 19.2227 35.4719 17.7969 35.5109 15.5312H32.0344V13.7539H37.6008V15.3555C37.6008 18.9297 35.1398 21.1953 31.7023 21.1953C27.8742 21.1953 25.2766 18.4023 25.2766 13.9297C25.2766 9.41797 27.9523 6.66406 31.6047 6.66406C34.6711 6.66406 37.0148 8.57812 37.5031 11.332H35.2961ZM39.8813 6.85938H42.4984L46.9711 17.8164H47.1469L51.6195 6.85938H54.2367V21H52.1859V10.7852H52.0492L47.9086 20.9805H46.2094L42.0492 10.7656H41.932V21H39.8813V6.85938Z" fill="#FAFDFF"/>
<defs>
<linearGradient id="paint0_linear_1017_43391" x1="2.64121" y1="7.68193e-07" x2="32.9636" y2="76.282" gradientUnits="userSpaceOnUse">
<stop offset="0.01" stop-color="white"/>
<stop offset="0.409316" stop-color="white" stop-opacity="0"/>
<stop offset="0.6" stop-color="white" stop-opacity="0.5"/>
<stop offset="0.8" stop-color="white"/>
<stop offset="1" stop-color="white" stop-opacity="0.25"/>
</linearGradient>
</defs>
</svg>
