<svg width="140" height="42" viewBox="0 0 140 42" fill="none" xmlns="http://www.w3.org/2000/svg">
<mask id="path-1-inside-1_1871_19139" fill="white">
<path d="M0 21C0 9.40202 9.40202 0 21 0H119C130.598 0 140 9.40202 140 21C140 32.598 130.598 42 119 42H21C9.40202 42 0 32.598 0 21Z"/>
</mask>
<path d="M0 21C0 9.40202 9.40202 0 21 0H119C130.598 0 140 9.40202 140 21C140 32.598 130.598 42 119 42H21C9.40202 42 0 32.598 0 21Z" fill="url(#paint0_linear_1871_19139)" fill-opacity="0.2"/>
<path d="M21 0V1H119V0V-1H21V0ZM119 42V41H21V42V43H119V42ZM21 42V41C9.9543 41 1 32.0457 1 21H0H-1C-1 33.1503 8.84973 43 21 43V42ZM140 21H139C139 32.0457 130.046 41 119 41V42V43C131.15 43 141 33.1503 141 21H140ZM119 0V1C130.046 1 139 9.9543 139 21H140H141C141 8.84974 131.15 -1 119 -1V0ZM21 0V-1C8.84974 -1 -1 8.84974 -1 21H0H1C1 9.95431 9.95431 1 21 1V0Z" fill="url(#paint1_linear_1871_19139)" mask="url(#path-1-inside-1_1871_19139)"/>
<g filter="url(#filter0_d_1871_19139)">
<path d="M32.4819 28.4062H30.7319V14.2656H32.4819V28.4062ZM24.8725 15.2969C25.5808 15.2969 26.211 15.5026 26.7631 15.9141C27.3204 16.3203 27.7579 16.901 28.0756 17.6562C28.3933 18.4062 28.5548 19.2812 28.56 20.2812C28.5548 21.2865 28.3933 22.1667 28.0756 22.9219C27.7631 23.6771 27.3282 24.2604 26.7709 24.6719C26.2136 25.0781 25.5808 25.2812 24.8725 25.2812C24.159 25.2812 23.5235 25.0781 22.9663 24.6719C22.409 24.2604 21.9715 23.6771 21.6538 22.9219C21.3413 22.1667 21.185 21.2865 21.185 20.2812C21.185 19.2812 21.3413 18.4062 21.6538 17.6562C21.9715 16.901 22.409 16.3203 22.9663 15.9141C23.5235 15.5026 24.159 15.2969 24.8725 15.2969ZM24.8725 16.8594C24.4715 16.8594 24.1173 16.9948 23.81 17.2656C23.5079 17.5365 23.2735 17.9297 23.1069 18.4453C22.9402 18.9609 22.8569 19.5729 22.8569 20.2812C22.8569 20.9948 22.9402 21.6094 23.1069 22.125C23.2735 22.6406 23.5079 23.0365 23.81 23.3125C24.1173 23.5833 24.4715 23.7188 24.8725 23.7188C25.2683 23.7188 25.6173 23.5833 25.9194 23.3125C26.2215 23.0365 26.4558 22.6406 26.6225 22.125C26.7892 21.6094 26.8725 20.9948 26.8725 20.2812C26.8725 19.5729 26.7892 18.9635 26.6225 18.4531C26.4558 17.9375 26.2215 17.5443 25.9194 17.2734C25.6173 16.9974 25.2683 16.8594 24.8725 16.8594ZM38.2594 15.2969C38.8948 15.2969 39.4677 15.4661 39.9781 15.8047C40.4885 16.1432 40.9052 16.6276 41.2281 17.2578C41.551 17.8828 41.7516 18.6198 41.8297 19.4688H44.525V14.2656H46.2438V28.4062H44.525V20.875H41.8531C41.7906 21.7708 41.6005 22.5521 41.2828 23.2188C40.9651 23.8802 40.5458 24.3906 40.025 24.75C39.5042 25.1042 38.9156 25.2812 38.2594 25.2812C37.551 25.2812 36.9234 25.0781 36.3766 24.6719C35.8297 24.2656 35.4026 23.6849 35.0953 22.9297C34.788 22.1745 34.6344 21.2917 34.6344 20.2812C34.6344 19.2812 34.788 18.4062 35.0953 17.6562C35.4026 16.901 35.8297 16.3203 36.3766 15.9141C36.9286 15.5026 37.5563 15.2969 38.2594 15.2969ZM38.2594 16.8594C37.8688 16.8594 37.525 16.9974 37.2281 17.2734C36.9313 17.5443 36.7021 17.9375 36.5406 18.4531C36.3792 18.9635 36.301 19.5729 36.3063 20.2812C36.301 20.9948 36.3792 21.6094 36.5406 22.125C36.7021 22.6406 36.9313 23.0365 37.2281 23.3125C37.525 23.5833 37.8688 23.7188 38.2594 23.7188C38.65 23.7188 38.9911 23.5833 39.2828 23.3125C39.5797 23.0365 39.8089 22.6406 39.9703 22.125C40.137 21.6094 40.2229 20.9948 40.2281 20.2812C40.2229 19.5729 40.137 18.9609 39.9703 18.4453C39.8089 17.9297 39.5797 17.5365 39.2828 17.2656C38.9911 16.9948 38.65 16.8594 38.2594 16.8594ZM53.2869 17.6562C53.2869 18.5417 53.4223 19.3984 53.6931 20.2266C53.9692 21.0495 54.3702 21.7786 54.8963 22.4141C55.4275 23.0495 56.0577 23.526 56.7869 23.8438L55.74 25.2344C54.9588 24.8542 54.2843 24.3073 53.7166 23.5938C53.1541 22.8802 52.7192 22.0521 52.4119 21.1094C52.0942 22.1094 51.6463 22.9896 51.0681 23.75C50.4952 24.5104 49.8129 25.0938 49.0213 25.5L47.9275 24.0938C48.6723 23.7448 49.3129 23.2344 49.8494 22.5625C50.391 21.8906 50.8025 21.1276 51.0838 20.2734C51.3702 19.4193 51.516 18.5469 51.5213 17.6562V15.4062H53.2869V17.6562ZM59.9119 28.4062H58.1931V20.2344H55.2244V18.8281H58.1931V14.2656H59.9119V28.4062ZM72.5606 16.5156H67.6856V17.8281H72.2794V19.2188H67.6856V20.6094C69.0033 20.6042 70.0763 20.5755 70.9044 20.5234C71.7377 20.4714 72.5606 20.3698 73.3731 20.2188L73.5606 21.5938C72.7117 21.7396 71.8601 21.8385 71.0059 21.8906C70.1518 21.9427 69.0919 21.9688 67.8263 21.9688H67.0763H65.9513V15.0938H72.5606V16.5156ZM76.5138 28.2188H67.3888V23.2031H76.5138V28.2188ZM69.1075 26.8125H74.795V24.5625H69.1075V26.8125ZM76.5138 17.6406H78.4825V19.0781H76.5138V22.5469H74.7794V14.2656H76.5138V17.6406ZM83.4475 16.8281C83.4475 17.3698 83.5465 17.8906 83.7444 18.3906C83.9475 18.8906 84.2548 19.3411 84.6663 19.7422C85.0777 20.1432 85.5829 20.4635 86.1819 20.7031L85.2444 22.0312C84.6402 21.7865 84.1168 21.4453 83.6741 21.0078C83.2366 20.5703 82.8876 20.0599 82.6272 19.4766C82.3564 20.138 81.9866 20.7214 81.5178 21.2266C81.0491 21.7318 80.4892 22.125 79.8381 22.4062L78.9163 21.0625C79.536 20.7865 80.0595 20.4219 80.4866 19.9688C80.9136 19.5104 81.234 19.0104 81.4475 18.4688C81.661 17.9271 81.7704 17.3802 81.7756 16.8281V15.1094H83.4475V16.8281ZM91.1194 22.8281H89.4631V19.2344H88.0569V22.75H86.4319V14.5156H88.0569V17.7969H89.4631V14.2812H91.1194V22.8281ZM91.1194 28.3906H89.385V24.8906H81.4475V23.5H91.1194V28.3906ZM103.772 19.8906H105.944V21.3281H103.772V28.3906H102.053V14.2656H103.772V19.8906ZM100.959 17.8281H92.6313V16.4375H95.975V14.4688H97.7094V16.4375H100.959V17.8281ZM96.85 18.75C97.5219 18.75 98.126 18.8932 98.6625 19.1797C99.2042 19.4609 99.6287 19.8542 99.9359 20.3594C100.243 20.8646 100.397 21.4375 100.397 22.0781C100.397 22.7188 100.243 23.2917 99.9359 23.7969C99.6287 24.2969 99.2042 24.6875 98.6625 24.9688C98.126 25.25 97.5219 25.3906 96.85 25.3906C96.1677 25.3906 95.5557 25.25 95.0141 24.9688C94.4724 24.6875 94.0479 24.2969 93.7406 23.7969C93.4333 23.2917 93.2823 22.7188 93.2875 22.0781C93.2823 21.4375 93.4333 20.8646 93.7406 20.3594C94.0479 19.8542 94.4724 19.4609 95.0141 19.1797C95.5557 18.8932 96.1677 18.75 96.85 18.75ZM96.85 20.1719C96.4802 20.1719 96.1495 20.25 95.8578 20.4062C95.5714 20.5625 95.3474 20.7865 95.1859 21.0781C95.0245 21.3646 94.9438 21.6979 94.9438 22.0781C94.9438 22.4583 95.0245 22.7917 95.1859 23.0781C95.3474 23.3594 95.5714 23.5781 95.8578 23.7344C96.1495 23.8854 96.4802 23.9583 96.85 23.9531C97.2094 23.9583 97.5297 23.8854 97.8109 23.7344C98.0974 23.5781 98.3214 23.3594 98.4828 23.0781C98.6495 22.7917 98.7354 22.4583 98.7406 22.0781C98.7354 21.6979 98.6495 21.3646 98.4828 21.0781C98.3214 20.7917 98.0974 20.5703 97.8109 20.4141C97.5297 20.2526 97.2094 20.1719 96.85 20.1719ZM118.174 28.3906H116.424V14.2656H118.174V28.3906ZM113.956 15.7656C113.956 18.0104 113.448 19.9818 112.432 21.6797C111.417 23.3724 109.732 24.776 107.378 25.8906L106.471 24.5C108.289 23.6354 109.656 22.6016 110.573 21.3984C111.495 20.1901 112.034 18.7708 112.19 17.1406H107.19V15.7656H113.956Z" fill="#FAFDFF"/>
</g>
<defs>
<filter id="filter0_d_1871_19139" x="17.185" y="10.2656" width="104.989" height="22.1406" filterUnits="userSpaceOnUse" color-interpolation-filters="sRGB">
<feFlood flood-opacity="0" result="BackgroundImageFix"/>
<feColorMatrix in="SourceAlpha" type="matrix" values="0 0 0 0 0 0 0 0 0 0 0 0 0 0 0 0 0 0 127 0" result="hardAlpha"/>
<feOffset/>
<feGaussianBlur stdDeviation="2"/>
<feComposite in2="hardAlpha" operator="out"/>
<feColorMatrix type="matrix" values="0 0 0 0 0 0 0 0 0 0.313726 0 0 0 0 0.752941 0 0 0 0.6 0"/>
<feBlend mode="normal" in2="BackgroundImageFix" result="effect1_dropShadow_1871_19139"/>
<feBlend mode="normal" in="SourceGraphic" in2="effect1_dropShadow_1871_19139" result="shape"/>
</filter>
<linearGradient id="paint0_linear_1871_19139" x1="70" y1="0" x2="70" y2="42" gradientUnits="userSpaceOnUse">
<stop stop-color="#E6EDF9"/>
<stop offset="1" stop-color="#E5EDF9" stop-opacity="0.1"/>
</linearGradient>
<linearGradient id="paint1_linear_1871_19139" x1="2.37032" y1="1.15229e-06" x2="63.4452" y2="91.9248" gradientUnits="userSpaceOnUse">
<stop offset="0.01" stop-color="white"/>
<stop offset="0.409316" stop-color="white" stop-opacity="0"/>
<stop offset="0.6" stop-color="white" stop-opacity="0.5"/>
<stop offset="0.8" stop-color="white"/>
<stop offset="1" stop-color="white" stop-opacity="0.25"/>
</linearGradient>
</defs>
</svg>
