<svg width="156" height="28" viewBox="0 0 156 28" fill="none" xmlns="http://www.w3.org/2000/svg">
<mask id="path-1-inside-1_1017_43504" fill="white">
<path d="M0 0H156V28H0V0Z"/>
</mask>
<path d="M0 28H1V0H0H-1V28H0Z" fill="url(#paint0_linear_1017_43504)" mask="url(#path-1-inside-1_1017_43504)"/>
<path d="M23.0156 11.4688C22.6641 9.65234 21.1602 8.63672 19.3633 8.63672C16.9219 8.63672 15.1055 10.5117 15.1055 13.9297C15.1055 17.3672 16.9414 19.2227 19.3633 19.2227C21.1406 19.2227 22.6445 18.2266 23.0156 16.4297L25.1836 16.4492C24.7344 19.2422 22.4492 21.1953 19.3438 21.1953C15.6523 21.1953 12.9766 18.4414 12.9766 13.9297C12.9766 9.39844 15.6719 6.66406 19.3438 6.66406C22.332 6.66406 24.6953 8.42188 25.1836 11.4688H23.0156ZM27.132 21V10.3945H29.1438V12.0742H29.2609C29.6516 10.9414 30.7063 10.2383 31.9563 10.2383C32.2102 10.2383 32.6203 10.2578 32.8352 10.2773V12.2695C32.6594 12.2305 32.1711 12.1523 31.7414 12.1523C30.2961 12.1523 29.2219 13.1484 29.2219 14.5352V21H27.132ZM38.4164 21.2148C35.2914 21.2148 33.3773 19.0664 33.3773 15.7656C33.3773 12.5039 35.3305 10.2578 38.2797 10.2578C40.7016 10.2578 42.9867 11.7617 42.9867 15.5898V16.332H35.4477C35.5063 18.3438 36.6879 19.4961 38.4359 19.4961C39.6273 19.4961 40.3891 18.9883 40.7406 18.3438H42.85C42.3813 20.0625 40.7406 21.2148 38.4164 21.2148ZM35.4672 14.7695H40.9359C40.9359 13.1484 39.9008 11.9766 38.2992 11.9766C36.6293 11.9766 35.5453 13.2656 35.4672 14.7695ZM48.8219 21.2148C46.2633 21.2148 44.3883 19.1445 44.3883 15.7266C44.3883 12.2695 46.2828 10.2578 48.8414 10.2578C50.8141 10.2578 51.5367 11.4492 51.9078 12.1133H52.0055V6.85938H54.0953V21H52.0641V19.3398H51.9078C51.5172 20.043 50.7555 21.2148 48.8219 21.2148ZM49.2906 19.4375C51.068 19.4375 52.0641 17.9141 52.0641 15.6875C52.0641 13.4805 51.0875 12.0352 49.2906 12.0352C47.4352 12.0352 46.5172 13.5977 46.5172 15.6875C46.5172 17.8164 47.4742 19.4375 49.2906 19.4375ZM56.6102 21V10.3945H58.7V21H56.6102ZM57.6648 8.75391C56.9422 8.75391 56.3367 8.20703 56.3367 7.52344C56.3367 6.83984 56.9422 6.29297 57.6648 6.29297C58.368 6.29297 58.9734 6.83984 58.9734 7.52344C58.9734 8.20703 58.368 8.75391 57.6648 8.75391ZM66 10.3945V12.0547H63.832V17.875C63.832 19.0664 64.4375 19.2812 65.1016 19.3008C65.3945 19.3008 65.8633 19.2617 66.1562 19.2422V21.0586C65.8633 21.0977 65.4141 21.1367 64.8477 21.1367C63.207 21.1367 61.7422 20.2383 61.7617 18.3047V12.0547H60.1992V10.3945H61.7617V7.85547H63.832V10.3945H66Z" fill="#FAFDFF"/>
<defs>
<linearGradient id="paint0_linear_1017_43504" x1="2.64121" y1="7.68193e-07" x2="32.9636" y2="76.282" gradientUnits="userSpaceOnUse">
<stop offset="0.01" stop-color="white"/>
<stop offset="0.409316" stop-color="white" stop-opacity="0"/>
<stop offset="0.6" stop-color="white" stop-opacity="0.5"/>
<stop offset="0.8" stop-color="white"/>
<stop offset="1" stop-color="white" stop-opacity="0.25"/>
</linearGradient>
</defs>
</svg>
