<svg width="126" height="42" viewBox="0 0 126 42" fill="none" xmlns="http://www.w3.org/2000/svg">
<mask id="path-1-inside-1_1871_9252" fill="white">
<path d="M0 21C0 9.40202 9.40202 0 21 0H105C116.598 0 126 9.40202 126 21C126 32.598 116.598 42 105 42H21C9.40202 42 0 32.598 0 21Z"/>
</mask>
<path d="M0 21C0 9.40202 9.40202 0 21 0H105C116.598 0 126 9.40202 126 21C126 32.598 116.598 42 105 42H21C9.40202 42 0 32.598 0 21Z" fill="url(#paint0_linear_1871_9252)" fill-opacity="0.2"/>
<path d="M21 0V1H105V0V-1H21V0ZM105 42V41H21V42V43H105V42ZM21 42V41C9.95431 41 1 32.0457 1 21H0H-1C-1 33.1503 8.84974 43 21 43V42ZM126 21H125C125 32.0457 116.046 41 105 41V42V43C117.15 43 127 33.1503 127 21H126ZM105 0V1C116.046 1 125 9.95431 125 21H126H127C127 8.84974 117.15 -1 105 -1V0ZM21 0V-1C8.84974 -1 -1 8.84974 -1 21H0H1C1 9.95431 9.95431 1 21 1V0Z" fill="url(#paint1_linear_1871_9252)" mask="url(#path-1-inside-1_1871_9252)"/>
<g filter="url(#filter0_d_1871_9252)">
<path d="M31.6284 19.625H33.8003V21.0469H31.6284V28.4062H29.8941V14.2656H31.6284V19.625ZM27.7534 17.0156H22.8784V23.5C24.0191 23.5 25.0477 23.4661 25.9644 23.3984C26.881 23.3307 27.8107 23.2135 28.7534 23.0469L28.9566 24.5156C27.9357 24.6927 26.9253 24.8099 25.9253 24.8672C24.9305 24.9245 23.7274 24.9531 22.3159 24.9531H21.1441V15.6094H27.7534V17.0156ZM39.5778 17.6562C39.5726 18.526 39.7158 19.3724 40.0075 20.1953C40.2992 21.0182 40.721 21.75 41.2731 22.3906C41.8252 23.0312 42.4736 23.5104 43.2184 23.8281L42.1872 25.2188C41.3903 24.849 40.695 24.3099 40.1012 23.6016C39.5127 22.8932 39.0518 22.0677 38.7184 21.125C38.3851 22.1458 37.9137 23.0417 37.3044 23.8125C36.7002 24.5781 35.9789 25.1562 35.1403 25.5469L34.0778 24.0938C34.8434 23.7656 35.5075 23.2708 36.07 22.6094C36.6377 21.9427 37.07 21.1797 37.3669 20.3203C37.6637 19.4557 37.8122 18.5677 37.8122 17.6562V15.4062H39.5778V17.6562ZM45.9841 28.4062H44.2341V14.2656H45.9841V28.4062ZM63.0703 16.9219V17.0938C63.0651 17.875 63.0495 18.5547 63.0234 19.1328C63.0026 19.7057 62.9531 20.3724 62.875 21.1328C62.7969 21.888 62.6745 22.7083 62.5078 23.5938L60.7578 23.4062C60.9245 22.5833 61.0469 21.8073 61.125 21.0781C61.2031 20.3438 61.2526 19.6927 61.2734 19.125C61.2995 18.5573 61.3151 17.8906 61.3203 17.125V16.9531H52.8828V15.5625H63.0703V16.9219ZM64.4141 26.5625H51.5391V25.1406H56.2891V20.2344H58.0078V25.1406H64.4141V26.5625ZM78.0978 21.9844H65.1916V20.6719H78.0978V21.9844ZM76.5353 26.0469H68.4416V27.0312H76.9572V28.2344H66.7072V24.9219H74.8166V24.0469H66.6916V22.8281H76.5353V26.0469ZM76.5041 17.7656H68.5509V18.6875H76.7541V19.875H66.8322V16.6406H74.7697V15.7812H66.7853V14.5781H76.5041V17.7656ZM91.0628 28.3906H89.4066V14.2656H91.0628V28.3906ZM88.0628 27.7188H86.4222V21.2188H83.8988C83.0498 22.901 81.667 24.2969 79.7503 25.4062L78.7659 24.1719C80.2034 23.3281 81.2842 22.3516 82.0081 21.2422C82.7321 20.1276 83.1618 18.8438 83.2972 17.3906H79.4847V15.9844H85.0159C85.0159 17.4062 84.8336 18.6875 84.4691 19.8281H86.4222V14.6094H88.0628V27.7188ZM105.45 26.6719H92.5434V25.25H95.5278V21.6797C94.9549 21.3464 94.5096 20.9323 94.1919 20.4375C93.8794 19.9427 93.7257 19.3854 93.7309 18.7656C93.7257 18.0312 93.9471 17.3802 94.395 16.8125C94.8429 16.2448 95.4653 15.8073 96.2622 15.5C97.0591 15.1875 97.9601 15.0312 98.9653 15.0312C99.9757 15.0312 100.879 15.1875 101.676 15.5C102.478 15.8073 103.103 16.2448 103.551 16.8125C104.004 17.375 104.231 18.026 104.231 18.7656C104.231 19.3698 104.077 19.9193 103.77 20.4141C103.468 20.9036 103.038 21.3125 102.481 21.6406V25.25H105.45V26.6719ZM98.9653 16.4062C98.2622 16.4062 97.6424 16.5026 97.1059 16.6953C96.5747 16.8828 96.1606 17.1536 95.8638 17.5078C95.5721 17.862 95.4289 18.2812 95.4341 18.7656C95.4289 19.2448 95.5721 19.6615 95.8638 20.0156C96.1606 20.3698 96.5773 20.6432 97.1138 20.8359C97.6502 21.0286 98.2674 21.125 98.9653 21.125C99.6632 21.125 100.28 21.0286 100.817 20.8359C101.359 20.6432 101.778 20.3698 102.075 20.0156C102.377 19.6615 102.528 19.2448 102.528 18.7656C102.528 18.2865 102.377 17.8698 102.075 17.5156C101.778 17.1562 101.361 16.8828 100.825 16.6953C100.288 16.5026 99.6684 16.4062 98.9653 16.4062ZM100.715 25.25V22.3047C100.163 22.4245 99.5799 22.4844 98.9653 22.4844C98.3768 22.4844 97.8039 22.4271 97.2466 22.3125V25.25H100.715Z" fill="#FAFDFF"/>
</g>
<defs>
<filter id="filter0_d_1871_9252" x="17.1445" y="10.2656" width="92.3047" height="22.1406" filterUnits="userSpaceOnUse" color-interpolation-filters="sRGB">
<feFlood flood-opacity="0" result="BackgroundImageFix"/>
<feColorMatrix in="SourceAlpha" type="matrix" values="0 0 0 0 0 0 0 0 0 0 0 0 0 0 0 0 0 0 127 0" result="hardAlpha"/>
<feOffset/>
<feGaussianBlur stdDeviation="2"/>
<feComposite in2="hardAlpha" operator="out"/>
<feColorMatrix type="matrix" values="0 0 0 0 0 0 0 0 0 0.313726 0 0 0 0 0.752941 0 0 0 0.6 0"/>
<feBlend mode="normal" in2="BackgroundImageFix" result="effect1_dropShadow_1871_9252"/>
<feBlend mode="normal" in="SourceGraphic" in2="effect1_dropShadow_1871_9252" result="shape"/>
</filter>
<linearGradient id="paint0_linear_1871_9252" x1="63" y1="0" x2="63" y2="42" gradientUnits="userSpaceOnUse">
<stop stop-color="#E6EDF9"/>
<stop offset="1" stop-color="#E5EDF9" stop-opacity="0.1"/>
</linearGradient>
<linearGradient id="paint1_linear_1871_9252" x1="2.13328" y1="1.15229e-06" x2="65.4462" y2="85.764" gradientUnits="userSpaceOnUse">
<stop offset="0.01" stop-color="white"/>
<stop offset="0.409316" stop-color="white" stop-opacity="0"/>
<stop offset="0.6" stop-color="white" stop-opacity="0.5"/>
<stop offset="0.8" stop-color="white"/>
<stop offset="1" stop-color="white" stop-opacity="0.25"/>
</linearGradient>
</defs>
</svg>
