<svg width="95" height="42" viewBox="0 0 95 42" fill="none" xmlns="http://www.w3.org/2000/svg">
<mask id="path-1-inside-1_1806_9213" fill="white">
<path d="M0 21C0 9.40202 9.40202 0 21 0H74C85.598 0 95 9.40202 95 21C95 32.598 85.598 42 74 42H21C9.40202 42 0 32.598 0 21Z"/>
</mask>
<path d="M0 21C0 9.40202 9.40202 0 21 0H74C85.598 0 95 9.40202 95 21C95 32.598 85.598 42 74 42H21C9.40202 42 0 32.598 0 21Z" fill="url(#paint0_linear_1806_9213)" fill-opacity="0.2"/>
<path d="M21 0V1H74V0V-1H21V0ZM74 42V41H21V42V43H74V42ZM21 42V41C9.95431 41 1 32.0457 1 21H0H-1C-1 33.1503 8.84974 43 21 43V42ZM95 21H94C94 32.0457 85.0457 41 74 41V42V43C86.1503 43 96 33.1503 96 21H95ZM74 0V1C85.0457 1 94 9.95431 94 21H95H96C96 8.84974 86.1503 -1 74 -1V0ZM21 0V-1C8.84974 -1 -1 8.84974 -1 21H0H1C1 9.95431 9.95431 1 21 1V0Z" fill="url(#paint1_linear_1806_9213)" mask="url(#path-1-inside-1_1806_9213)"/>
<path d="M32.3962 14.2656V28.4062H30.6619V20.6875H27.9431V19.2656H30.6619V14.2656H32.3962ZM25.74 18.0156C25.74 20.4531 27.0525 23.0469 29.3337 24.0312L28.3025 25.4219C26.6619 24.6406 25.49 23.0703 24.8806 21.2031C24.2478 23.1953 23.0525 24.875 21.4119 25.7031L20.365 24.3438C22.6306 23.2812 23.9587 20.5938 23.9744 18.0156V17.0781H20.9431V15.6562H28.7712V17.0781H25.74V18.0156ZM39.2831 16.8125C39.2831 18.5469 40.4081 20.1719 42.6112 20.8438L41.7831 22.2031C40.1972 21.7109 39.0722 20.7031 38.455 19.4219C37.83 20.9062 36.6347 22.0859 34.9394 22.6562L34.0644 21.2812C36.3456 20.5312 37.5331 18.7031 37.5331 16.8281V16.6562H34.5487V15.25H42.2206V16.6562H39.2831V16.8125ZM45.3612 14.2656V17.6562H47.33V19.0781H45.3612V22.6875H43.6269V14.2656H45.3612ZM40.7675 23C43.6894 23 45.4862 23.9844 45.5019 25.6719C45.4862 27.375 43.6894 28.375 40.7675 28.375C37.8144 28.375 35.9862 27.375 35.9862 25.6719C35.9862 23.9844 37.8144 23 40.7675 23ZM40.7675 24.3594C38.83 24.3594 37.7206 24.8125 37.7206 25.6719C37.7206 26.5469 38.83 27.0156 40.7675 27.0156C42.705 27.0156 43.7831 26.5469 43.7831 25.6719C43.7831 24.8125 42.705 24.3594 40.7675 24.3594ZM58.9513 14.2656V19.8906H61.1231V21.3281H58.9513V28.3906H57.2325V14.2656H58.9513ZM56.1388 16.4375V17.8281H47.8106V16.4375H51.1544V14.4688H52.8888V16.4375H56.1388ZM52.0294 18.75C54.0606 18.75 55.5763 20.125 55.5763 22.0781C55.5763 24.0312 54.0606 25.3906 52.0294 25.3906C49.9669 25.3906 48.4513 24.0312 48.4669 22.0781C48.4513 20.125 49.9669 18.75 52.0294 18.75ZM52.0294 20.1719C50.92 20.1719 50.1231 20.9219 50.1231 22.0781C50.1231 23.2344 50.92 23.9688 52.0294 23.9531C53.1075 23.9688 53.9044 23.2344 53.92 22.0781C53.9044 20.9219 53.1075 20.1719 52.0294 20.1719ZM73.3538 14.2656V28.3906H71.6038V14.2656H73.3538ZM69.135 15.7656C69.135 19.9688 67.51 23.5469 62.5569 25.8906L61.6506 24.5C65.3459 22.7422 67.0647 20.3516 67.3694 17.1406H62.3694V15.7656H69.135Z" fill="#FAFDFF"/>
<defs>
<linearGradient id="paint0_linear_1806_9213" x1="47.5" y1="0" x2="47.5" y2="42" gradientUnits="userSpaceOnUse">
<stop stop-color="#E6EDF9"/>
<stop offset="1" stop-color="#E5EDF9" stop-opacity="0.1"/>
</linearGradient>
<linearGradient id="paint1_linear_1806_9213" x1="1.60843" y1="1.15229e-06" x2="67.8452" y2="67.6495" gradientUnits="userSpaceOnUse">
<stop offset="0.01" stop-color="white"/>
<stop offset="0.409316" stop-color="white" stop-opacity="0"/>
<stop offset="0.6" stop-color="white" stop-opacity="0.5"/>
<stop offset="0.8" stop-color="white"/>
<stop offset="1" stop-color="white" stop-opacity="0.25"/>
</linearGradient>
</defs>
</svg>
