<svg width="140" height="42" viewBox="0 0 140 42" fill="none" xmlns="http://www.w3.org/2000/svg">
<mask id="path-1-inside-1_1871_19141" fill="white">
<path d="M0 21C0 9.40202 9.40202 0 21 0H119C130.598 0 140 9.40202 140 21C140 32.598 130.598 42 119 42H21C9.40202 42 0 32.598 0 21Z"/>
</mask>
<path d="M0 21C0 9.40202 9.40202 0 21 0H119C130.598 0 140 9.40202 140 21C140 32.598 130.598 42 119 42H21C9.40202 42 0 32.598 0 21Z" fill="url(#paint0_linear_1871_19141)" fill-opacity="0.2"/>
<path d="M21 0V1H119V0V-1H21V0ZM119 42V41H21V42V43H119V42ZM21 42V41C9.9543 41 1 32.0457 1 21H0H-1C-1 33.1503 8.84973 43 21 43V42ZM140 21H139C139 32.0457 130.046 41 119 41V42V43C131.15 43 141 33.1503 141 21H140ZM119 0V1C130.046 1 139 9.9543 139 21H140H141C141 8.84974 131.15 -1 119 -1V0ZM21 0V-1C8.84974 -1 -1 8.84974 -1 21H0H1C1 9.95431 9.95431 1 21 1V0Z" fill="url(#paint1_linear_1871_19141)" mask="url(#path-1-inside-1_1871_19141)"/>
<g filter="url(#filter0_d_1871_19141)">
<path d="M34.7534 16.5156H29.8784V17.8281H34.4722V19.2188H29.8784V20.6094C31.1961 20.6042 32.2691 20.5755 33.0972 20.5234C33.9305 20.4714 34.7534 20.3698 35.5659 20.2188L35.7534 21.5938C34.9045 21.7396 34.0529 21.8385 33.1987 21.8906C32.3446 21.9427 31.2847 21.9688 30.0191 21.9688H29.2691H28.1441V15.0938H34.7534V16.5156ZM38.7066 28.2188H29.5816V23.2031H38.7066V28.2188ZM31.3003 26.8125H36.9878V24.5625H31.3003V26.8125ZM38.7066 17.6406H40.6753V19.0781H38.7066V22.5469H36.9722V14.2656H38.7066V17.6406ZM45.6403 16.8281C45.6403 17.3698 45.7393 17.8906 45.9372 18.3906C46.1403 18.8906 46.4476 19.3411 46.8591 19.7422C47.2705 20.1432 47.7757 20.4635 48.3747 20.7031L47.4372 22.0312C46.833 21.7865 46.3096 21.4453 45.8669 21.0078C45.4294 20.5703 45.0804 20.0599 44.82 19.4766C44.5492 20.138 44.1794 20.7214 43.7106 21.2266C43.2419 21.7318 42.682 22.125 42.0309 22.4062L41.1091 21.0625C41.7289 20.7865 42.2523 20.4219 42.6794 19.9688C43.1065 19.5104 43.4268 19.0104 43.6403 18.4688C43.8539 17.9271 43.9632 17.3802 43.9684 16.8281V15.1094H45.6403V16.8281ZM53.3122 22.8281H51.6559V19.2344H50.2497V22.75H48.6247V14.5156H50.2497V17.7969H51.6559V14.2812H53.3122V22.8281ZM53.3122 28.3906H51.5778V24.8906H43.6403V23.5H53.3122V28.3906ZM65.8203 21.1094H71.4141V22.5156H58.5391V21.1094H64.1016V19.3125H65.8203V21.1094ZM64.9609 23.4219C65.9818 23.4219 66.8568 23.5182 67.5859 23.7109C68.3151 23.8984 68.8724 24.1771 69.2578 24.5469C69.6484 24.9167 69.8464 25.3646 69.8516 25.8906C69.8464 26.4167 69.6484 26.8646 69.2578 27.2344C68.8724 27.6094 68.3151 27.8932 67.5859 28.0859C66.8568 28.2786 65.9818 28.375 64.9609 28.375C63.9349 28.375 63.0521 28.2786 62.3125 28.0859C61.5781 27.8932 61.0156 27.6094 60.625 27.2344C60.2344 26.8646 60.0391 26.4167 60.0391 25.8906C60.0391 25.3646 60.2344 24.9167 60.625 24.5469C61.0156 24.1771 61.5781 23.8984 62.3125 23.7109C63.0521 23.5182 63.9349 23.4219 64.9609 23.4219ZM64.9609 24.75C63.9193 24.75 63.1302 24.8464 62.5938 25.0391C62.0625 25.2318 61.7995 25.5156 61.8047 25.8906C61.7995 26.2812 62.0625 26.5755 62.5938 26.7734C63.1302 26.9661 63.9193 27.0625 64.9609 27.0625C65.9818 27.0625 66.7604 26.9635 67.2969 26.7656C67.8385 26.5677 68.112 26.276 68.1172 25.8906C68.112 25.5156 67.8385 25.2318 67.2969 25.0391C66.7604 24.8464 65.9818 24.75 64.9609 24.75ZM70.2578 16.2812H66.1875C66.2865 16.6667 66.5339 17.0312 66.9297 17.375C67.3307 17.7135 67.862 18.0026 68.5234 18.2422C69.1901 18.4766 69.9505 18.6354 70.8047 18.7188L70.1797 20.0781C68.9089 19.9479 67.8177 19.6484 66.9062 19.1797C65.9948 18.7057 65.3464 18.112 64.9609 17.3984C64.5755 18.1172 63.9297 18.7109 63.0234 19.1797C62.1172 19.6484 61.0286 19.9479 59.7578 20.0781L59.1484 18.7188C59.9974 18.6354 60.75 18.4766 61.4062 18.2422C62.0677 18.0026 62.5964 17.7135 62.9922 17.375C63.3932 17.0365 63.6432 16.6719 63.7422 16.2812H59.7109V14.8906H70.2578V16.2812ZM85.1134 26.75H72.2072V25.3125H75.6291V22.9844H73.7384V18.375H81.8634V16.6406H73.7072V15.2344H83.5822V19.7656H75.4728V21.5781H83.9103V22.9844H81.8478V25.3125H85.1134V26.75ZM80.1447 25.3125V22.9844H77.3166V25.3125H80.1447ZM96.9378 19.8906H99.1097V21.3281H96.9378V28.3906H95.2191V14.2656H96.9378V19.8906ZM94.1253 17.8281H85.7972V16.4375H89.1409V14.4688H90.8753V16.4375H94.1253V17.8281ZM90.0159 18.75C90.6878 18.75 91.292 18.8932 91.8284 19.1797C92.3701 19.4609 92.7946 19.8542 93.1019 20.3594C93.4092 20.8646 93.5628 21.4375 93.5628 22.0781C93.5628 22.7188 93.4092 23.2917 93.1019 23.7969C92.7946 24.2969 92.3701 24.6875 91.8284 24.9688C91.292 25.25 90.6878 25.3906 90.0159 25.3906C89.3336 25.3906 88.7217 25.25 88.18 24.9688C87.6383 24.6875 87.2139 24.2969 86.9066 23.7969C86.5993 23.2917 86.4482 22.7188 86.4534 22.0781C86.4482 21.4375 86.5993 20.8646 86.9066 20.3594C87.2139 19.8542 87.6383 19.4609 88.18 19.1797C88.7217 18.8932 89.3336 18.75 90.0159 18.75ZM90.0159 20.1719C89.6461 20.1719 89.3154 20.25 89.0238 20.4062C88.7373 20.5625 88.5133 20.7865 88.3519 21.0781C88.1904 21.3646 88.1097 21.6979 88.1097 22.0781C88.1097 22.4583 88.1904 22.7917 88.3519 23.0781C88.5133 23.3594 88.7373 23.5781 89.0238 23.7344C89.3154 23.8854 89.6461 23.9583 90.0159 23.9531C90.3753 23.9583 90.6956 23.8854 90.9769 23.7344C91.2633 23.5781 91.4873 23.3594 91.6488 23.0781C91.8154 22.7917 91.9014 22.4583 91.9066 22.0781C91.9014 21.6979 91.8154 21.3646 91.6488 21.0781C91.4873 20.7917 91.2633 20.5703 90.9769 20.4141C90.6956 20.2526 90.3753 20.1719 90.0159 20.1719ZM111.34 28.3906H109.59V14.2656H111.34V28.3906ZM107.122 15.7656C107.122 18.0104 106.614 19.9818 105.598 21.6797C104.583 23.3724 102.898 24.776 100.543 25.8906L99.6372 24.5C101.455 23.6354 102.822 22.6016 103.739 21.3984C104.661 20.1901 105.2 18.7708 105.356 17.1406H100.356V15.7656H107.122Z" fill="#FAFDFF"/>
</g>
<defs>
<filter id="filter0_d_1871_19141" x="24.144" y="10.2656" width="91.1963" height="22.125" filterUnits="userSpaceOnUse" color-interpolation-filters="sRGB">
<feFlood flood-opacity="0" result="BackgroundImageFix"/>
<feColorMatrix in="SourceAlpha" type="matrix" values="0 0 0 0 0 0 0 0 0 0 0 0 0 0 0 0 0 0 127 0" result="hardAlpha"/>
<feOffset/>
<feGaussianBlur stdDeviation="2"/>
<feComposite in2="hardAlpha" operator="out"/>
<feColorMatrix type="matrix" values="0 0 0 0 0 0 0 0 0 0.313726 0 0 0 0 0.752941 0 0 0 0.6 0"/>
<feBlend mode="normal" in2="BackgroundImageFix" result="effect1_dropShadow_1871_19141"/>
<feBlend mode="normal" in="SourceGraphic" in2="effect1_dropShadow_1871_19141" result="shape"/>
</filter>
<linearGradient id="paint0_linear_1871_19141" x1="70" y1="0" x2="70" y2="42" gradientUnits="userSpaceOnUse">
<stop stop-color="#E6EDF9"/>
<stop offset="1" stop-color="#E5EDF9" stop-opacity="0.1"/>
</linearGradient>
<linearGradient id="paint1_linear_1871_19141" x1="2.37032" y1="1.15229e-06" x2="63.4452" y2="91.9248" gradientUnits="userSpaceOnUse">
<stop offset="0.01" stop-color="white"/>
<stop offset="0.409316" stop-color="white" stop-opacity="0"/>
<stop offset="0.6" stop-color="white" stop-opacity="0.5"/>
<stop offset="0.8" stop-color="white"/>
<stop offset="1" stop-color="white" stop-opacity="0.25"/>
</linearGradient>
</defs>
</svg>
