<svg width="32" height="32" viewBox="0 0 32 32" fill="none" xmlns="http://www.w3.org/2000/svg">
<circle cx="16" cy="16" r="15.5" fill="url(#paint0_linear_1806_3591)" fill-opacity="0.2" stroke="url(#paint1_linear_1806_3591)"/>
<path d="M15.8911 9.12159C16.1975 8.81105 16.6941 8.81101 17.0005 9.12159L21.9939 14.1832C22.3 14.4939 22.3002 14.9974 21.9939 15.3079C21.6876 15.6184 21.1909 15.6181 20.8845 15.3079L17.2304 11.6039V23.2045C17.2304 23.6436 16.879 23.9997 16.4458 23.9998C16.0125 23.9998 15.6612 23.6437 15.6612 23.2045V11.6039L12.0071 15.3079C11.7007 15.6182 11.204 15.6183 10.8977 15.3079C10.5913 14.9974 10.5915 14.4939 10.8977 14.1832L15.8911 9.12159Z" fill="#FAFDFF"/>
<defs>
<linearGradient id="paint0_linear_1806_3591" x1="16" y1="0" x2="16" y2="32" gradientUnits="userSpaceOnUse">
<stop stop-color="#E6EDF9"/>
<stop offset="1" stop-color="#E5EDF9" stop-opacity="0.1"/>
</linearGradient>
<linearGradient id="paint1_linear_1806_3591" x1="0.541786" y1="8.77935e-07" x2="38.4064" y2="17.0972" gradientUnits="userSpaceOnUse">
<stop offset="0.01" stop-color="white"/>
<stop offset="0.409316" stop-color="white" stop-opacity="0"/>
<stop offset="0.6" stop-color="white" stop-opacity="0.5"/>
<stop offset="0.8" stop-color="white"/>
<stop offset="1" stop-color="white" stop-opacity="0.25"/>
</linearGradient>
</defs>
</svg>
