<svg width="130" height="42" viewBox="0 0 130 42" fill="none" xmlns="http://www.w3.org/2000/svg">
<mask id="path-1-inside-1_1871_9249" fill="white">
<path d="M0 21C0 9.40202 9.40202 0 21 0H109C120.598 0 130 9.40202 130 21C130 32.598 120.598 42 109 42H21C9.40202 42 0 32.598 0 21Z"/>
</mask>
<path d="M0 21C0 9.40202 9.40202 0 21 0H109C120.598 0 130 9.40202 130 21C130 32.598 120.598 42 109 42H21C9.40202 42 0 32.598 0 21Z" fill="url(#paint0_linear_1871_9249)" fill-opacity="0.2"/>
<path d="M21 0V1H109V0V-1H21V0ZM109 42V41H21V42V43H109V42ZM21 42V41C9.95431 41 1 32.0457 1 21H0H-1C-1 33.1503 8.84974 43 21 43V42ZM130 21H129C129 32.0457 120.046 41 109 41V42V43C121.15 43 131 33.1503 131 21H130ZM109 0V1C120.046 1 129 9.95431 129 21H130H131C131 8.84974 121.15 -1 109 -1V0ZM21 0V-1C8.84974 -1 -1 8.84974 -1 21H0H1C1 9.95431 9.95431 1 21 1V0Z" fill="url(#paint1_linear_1871_9249)" mask="url(#path-1-inside-1_1871_9249)"/>
<g filter="url(#filter0_d_1871_9249)">
<path d="M22.935 23.4375C23.6694 23.4271 24.3621 23.3906 25.0131 23.3281C25.6694 23.2656 26.3413 23.1615 27.0288 23.0156L27.2788 24.4844C26.4506 24.6667 25.6433 24.7891 24.8569 24.8516C24.0704 24.9089 23.1694 24.9375 22.1538 24.9375H21.2006V15.6719H22.935V23.4375ZM32.7944 28.3906H31.1381V14.2656H32.7944V28.3906ZM29.7631 27.7188H28.1225V20.2344H25.1694V18.8281H28.1225V14.5625H29.7631V27.7188ZM35.7125 30.2656H34.2281L35.0406 25.8906H37.025L35.7125 30.2656ZM46.9706 16.7656C46.9706 17.401 47.0956 18.013 47.3456 18.6016C47.6008 19.1901 47.9758 19.7135 48.4706 20.1719C48.9706 20.625 49.5748 20.974 50.2831 21.2188L49.33 22.5781C48.58 22.2917 47.9316 21.8854 47.3847 21.3594C46.843 20.8333 46.4211 20.2188 46.1191 19.5156C45.8066 20.3073 45.3613 20.9948 44.7831 21.5781C44.2102 22.1615 43.5175 22.6042 42.705 22.9062L41.7831 21.5312C42.5175 21.2812 43.1399 20.9141 43.6503 20.4297C44.1659 19.9453 44.554 19.3854 44.8144 18.75C45.08 18.1146 45.2154 17.4479 45.2206 16.75V15.1406H46.9706V16.7656ZM53.6581 24.7656H51.9238V18.8125H49.1113V17.3906H51.9238V14.2812H53.6581V24.7656ZM53.9706 28.1094H44.3456V23.625H46.1113V26.7031H53.9706V28.1094ZM61.5763 16.6406H57.7013V18.0156H61.4356V19.3438H57.7013V20.8281C58.6127 20.8177 59.3914 20.7891 60.0372 20.7422C60.6882 20.6953 61.3419 20.6094 61.9981 20.4844L62.1856 21.8906C61.4096 22.0365 60.644 22.1328 59.8888 22.1797C59.1388 22.2266 58.1648 22.25 56.9669 22.25H56.0294V15.25H61.5763V16.6406ZM67.5763 22.875H65.92V19.2031H64.4513V22.7656H62.8263V14.5469H64.4513V17.8125H65.92V14.2812H67.5763V22.875ZM67.5763 28.3906H65.8419V24.9062H57.9044V23.5H67.5763V28.3906ZM80.3069 17.75H82.2756V19.1875H80.3069V22.5156H78.5725V14.2656H80.3069V17.75ZM72.9006 24.2969H78.5725V23.0781H80.3069V28.2188H71.1819V23.0781H72.9006V24.2969ZM78.5725 26.8438V25.6406H72.9006V26.8438H78.5725ZM77.5569 16.9688H69.1819V15.5781H72.51V14.1562H74.2444V15.5781H77.5569V16.9688ZM73.3694 17.4531C74.0465 17.4531 74.6454 17.5573 75.1663 17.7656C75.6871 17.9688 76.0907 18.2578 76.3772 18.6328C76.6689 19.0078 76.8173 19.4427 76.8225 19.9375C76.8173 20.4323 76.6689 20.8672 76.3772 21.2422C76.0907 21.6172 75.6871 21.9089 75.1663 22.1172C74.6454 22.3203 74.0465 22.4219 73.3694 22.4219C72.6871 22.4219 72.0829 22.3203 71.5569 22.1172C71.036 21.9089 70.6298 21.6172 70.3381 21.2422C70.0465 20.8672 69.9006 20.4323 69.9006 19.9375C69.9006 19.4427 70.0465 19.0078 70.3381 18.6328C70.6298 18.2578 71.036 17.9688 71.5569 17.7656C72.0829 17.5573 72.6871 17.4531 73.3694 17.4531ZM73.3694 18.7344C72.8277 18.7344 72.3954 18.8411 72.0725 19.0547C71.7496 19.2682 71.5881 19.5625 71.5881 19.9375C71.5881 20.3177 71.747 20.6146 72.0647 20.8281C72.3876 21.0365 72.8225 21.1406 73.3694 21.1406C73.9163 21.1406 74.3511 21.0339 74.6741 20.8203C75.0022 20.6068 75.1663 20.3125 75.1663 19.9375C75.1663 19.5677 75.0022 19.276 74.6741 19.0625C74.3459 18.8438 73.911 18.7344 73.3694 18.7344ZM94.6156 28.3906H92.8969V14.2656H94.6156V28.3906ZM85.3656 23.3594C87.5583 23.3229 89.6469 23.1094 91.6313 22.7188L91.85 24.1719C90.6781 24.4167 89.5167 24.5911 88.3656 24.6953C87.2198 24.7943 86.0531 24.8438 84.8656 24.8438H83.6469V15.6406H85.3656V23.3594ZM107.565 19.625H109.737V21.0469H107.565V28.4062H105.831V14.2656H107.565V19.625ZM103.69 17.0156H98.815V23.5C99.9556 23.5 100.984 23.4661 101.901 23.3984C102.818 23.3307 103.747 23.2135 104.69 23.0469L104.893 24.5156C103.872 24.6927 102.862 24.8099 101.862 24.8672C100.867 24.9245 99.664 24.9531 98.2525 24.9531H97.0806V15.6094H103.69V17.0156Z" fill="#FAFDFF"/>
</g>
<defs>
<filter id="filter0_d_1871_9249" x="17.2002" y="10.1562" width="96.5371" height="24.1094" filterUnits="userSpaceOnUse" color-interpolation-filters="sRGB">
<feFlood flood-opacity="0" result="BackgroundImageFix"/>
<feColorMatrix in="SourceAlpha" type="matrix" values="0 0 0 0 0 0 0 0 0 0 0 0 0 0 0 0 0 0 127 0" result="hardAlpha"/>
<feOffset/>
<feGaussianBlur stdDeviation="2"/>
<feComposite in2="hardAlpha" operator="out"/>
<feColorMatrix type="matrix" values="0 0 0 0 0 0 0 0 0 0.313726 0 0 0 0 0.752941 0 0 0 0.6 0"/>
<feBlend mode="normal" in2="BackgroundImageFix" result="effect1_dropShadow_1871_9249"/>
<feBlend mode="normal" in="SourceGraphic" in2="effect1_dropShadow_1871_9249" result="shape"/>
</filter>
<linearGradient id="paint0_linear_1871_9249" x1="65" y1="0" x2="65" y2="42" gradientUnits="userSpaceOnUse">
<stop stop-color="#E6EDF9"/>
<stop offset="1" stop-color="#E5EDF9" stop-opacity="0.1"/>
</linearGradient>
<linearGradient id="paint1_linear_1871_9249" x1="2.20101" y1="1.15229e-06" x2="64.906" y2="87.6371" gradientUnits="userSpaceOnUse">
<stop offset="0.01" stop-color="white"/>
<stop offset="0.409316" stop-color="white" stop-opacity="0"/>
<stop offset="0.6" stop-color="white" stop-opacity="0.5"/>
<stop offset="0.8" stop-color="white"/>
<stop offset="1" stop-color="white" stop-opacity="0.25"/>
</linearGradient>
</defs>
</svg>
